# Blender v2.60 (sub 0) OBJ File: 'Table.blend'
# www.blender.org
mtllib Table.mtl
o Table_Cube
v 0.164104 0.052897 -0.102547
v 0.164104 0.052897 -0.076688
v 0.158199 0.052897 -0.076688
v 0.158199 0.052897 -0.102547
v 0.164104 0.055203 -0.102547
v 0.164104 0.055203 -0.076688
v 0.158199 0.055203 -0.076688
v 0.158199 0.055203 -0.102547
v 0.164071 0.052868 -0.077539
v 0.164071 0.052868 -0.051449
v 0.160726 0.052868 -0.051449
v 0.160726 0.052868 -0.077539
v 0.164071 0.055173 -0.077539
v 0.164071 0.055173 -0.051449
v 0.160726 0.055173 -0.051449
v 0.160726 0.055173 -0.077539
v 0.164078 0.052958 -0.052600
v 0.164078 0.052958 -0.026741
v 0.158173 0.052958 -0.026741
v 0.158173 0.052958 -0.052600
v 0.164078 0.055263 -0.052600
v 0.164078 0.055263 -0.026741
v 0.158173 0.055263 -0.026741
v 0.158173 0.055263 -0.052600
v 0.036631 0.052893 -0.052557
v 0.036631 0.052893 -0.026698
v 0.030727 0.052893 -0.026698
v 0.030727 0.052893 -0.052557
v 0.036631 0.055198 -0.052557
v 0.036631 0.055198 -0.026698
v 0.030727 0.055198 -0.026698
v 0.030727 0.055198 -0.052557
v 0.034102 0.052802 -0.077497
v 0.034102 0.052802 -0.051407
v 0.030758 0.052802 -0.051407
v 0.030758 0.052802 -0.077497
v 0.034102 0.055108 -0.077497
v 0.034102 0.055108 -0.051407
v 0.030758 0.055108 -0.051407
v 0.030758 0.055108 -0.077497
v 0.036657 0.052832 -0.102505
v 0.036657 0.052832 -0.076646
v 0.030752 0.052832 -0.076646
v 0.030752 0.052832 -0.102505
v 0.036657 0.055137 -0.102505
v 0.036657 0.055137 -0.076646
v 0.030752 0.055137 -0.076646
v 0.030752 0.055137 -0.102505
v 0.030867 0.052899 -0.031453
v 0.030867 0.052899 -0.026686
v 0.164046 0.052899 -0.026686
v 0.164046 0.052899 -0.031453
v 0.030867 0.055163 -0.031453
v 0.030867 0.055163 -0.026686
v 0.164046 0.055163 -0.026686
v 0.164046 0.055163 -0.031453
v 0.030865 0.052881 -0.102516
v 0.030865 0.052881 -0.097748
v 0.164044 0.052881 -0.097748
v 0.164044 0.052881 -0.102516
v 0.030865 0.055144 -0.102516
v 0.030865 0.055144 -0.097748
v 0.164044 0.055144 -0.097748
v 0.164044 0.055144 -0.102516
v 0.163998 0.019505 -0.034145
v 0.163998 0.019505 -0.026720
v 0.157535 0.019505 -0.026720
v 0.157535 0.019505 -0.034145
v 0.163998 0.047456 -0.034145
v 0.163998 0.047456 -0.026720
v 0.157535 0.047456 -0.026720
v 0.157535 0.047456 -0.034145
v 0.163998 0.019505 -0.102476
v 0.163998 0.019505 -0.095051
v 0.157535 0.019505 -0.095051
v 0.157535 0.019505 -0.102476
v 0.163998 0.047456 -0.102476
v 0.163998 0.047456 -0.095051
v 0.157535 0.047456 -0.095051
v 0.157535 0.047456 -0.102476
v 0.037229 0.020027 -0.102486
v 0.037229 0.020027 -0.095062
v 0.030765 0.020027 -0.095062
v 0.030765 0.020027 -0.102486
v 0.037229 0.047979 -0.102486
v 0.037229 0.047979 -0.095062
v 0.030765 0.047979 -0.095062
v 0.030765 0.047979 -0.102486
v 0.037294 0.019943 -0.034087
v 0.037294 0.019943 -0.026662
v 0.030830 0.019943 -0.026662
v 0.030830 0.019943 -0.034087
v 0.037294 0.047895 -0.034087
v 0.037294 0.047895 -0.026662
v 0.030830 0.047895 -0.026662
v 0.030830 0.047895 -0.034087
v 0.164030 0.046326 -0.102519
v 0.164030 0.046326 -0.026658
v 0.030737 0.046326 -0.026658
v 0.030737 0.046326 -0.102519
v 0.164030 0.052898 -0.102519
v 0.164030 0.052898 -0.026657
v 0.030737 0.052898 -0.026658
v 0.030737 0.052898 -0.102519
vt 0.000000 0.000000
vt 1.000000 0.000000
vt 1.000000 1.000000
vt 0.000000 1.000000
vn -0.000000 -1.000000 -0.000002
vn -0.000000 1.000000 0.000002
vn 1.000000 -0.000000 0.000002
vn -0.000003 -0.000005 1.000000
vn -1.000000 0.000000 -0.000001
vn 0.000002 0.000005 -1.000000
vn -1.000000 -0.000003 -0.000002
vn 0.000004 0.000003 -1.000000
vn -0.000003 -0.000002 1.000000
vn -1.000000 0.000000 -0.000002
vn 0.000003 0.000003 -1.000000
vn 0.000000 -1.000000 0.000000
vn 0.000000 1.000000 0.000000
vn 1.000000 0.000000 0.000000
vn -0.000002 -0.000004 1.000000
vn -1.000000 -0.000000 0.000000
vn 0.000001 0.000003 -1.000000
vn -0.000002 0.000000 1.000000
vn 0.000002 0.000000 -1.000000
vn -0.000001 -0.000002 1.000000
vn 1.000000 -0.000003 -0.000008
vn -0.000000 0.000001 -1.000000
vn -1.000000 0.000007 0.000006
vn 0.000000 -0.000002 1.000000
vn 1.000000 -0.000002 -0.000010
vn -0.000000 0.000000 -1.000000
vn -1.000000 0.000010 0.000008
vn 0.000000 0.000000 1.000000
vn 1.000000 -0.000000 0.000001
vn -0.000001 0.000000 1.000000
vn 1.000000 0.000002 0.000001
vn -0.000000 -0.000001 1.000000
vn -1.000000 -0.000002 -0.000000
vn 0.000000 0.000002 -1.000000
usemtl wood.jpg
s off
f 1/1/1 2/2/1 3/3/1
f 1/1/1 3/3/1 4/4/1
f 5/1/2 8/2/2 7/3/2
f 5/1/2 7/3/2 6/4/2
f 1/1/3 5/2/3 6/3/3
f 1/1/3 6/3/3 2/4/3
f 2/1/4 6/2/4 7/3/4
f 2/1/4 7/3/4 3/4/4
f 3/1/5 7/2/5 8/3/5
f 3/1/5 8/3/5 4/4/5
f 5/1/6 1/2/6 4/3/6
f 5/1/6 4/3/6 8/4/6
f 9/1/1 10/2/1 11/3/1
f 9/1/1 11/3/1 12/4/1
f 13/1/2 16/2/2 15/3/2
f 13/1/2 15/3/2 14/4/2
f 9/1/3 13/2/3 14/3/3
f 9/1/3 14/3/3 10/4/3
f 10/1/4 14/2/4 15/3/4
f 10/1/4 15/3/4 11/4/4
f 11/1/7 15/2/7 16/3/7
f 11/1/7 16/3/7 12/4/7
f 13/1/8 9/2/8 12/3/8
f 13/1/8 12/3/8 16/4/8
f 17/1/1 18/2/1 19/3/1
f 17/1/1 19/3/1 20/4/1
f 21/1/2 24/2/2 23/3/2
f 21/1/2 23/3/2 22/4/2
f 17/1/3 21/2/3 22/3/3
f 17/1/3 22/3/3 18/4/3
f 18/1/9 22/2/9 23/3/9
f 18/1/9 23/3/9 19/4/9
f 19/1/10 23/2/10 24/3/10
f 19/1/10 24/3/10 20/4/10
f 21/1/11 17/2/11 20/3/11
f 21/1/11 20/3/11 24/4/11
f 25/1/12 26/2/12 27/3/12
f 25/1/12 27/3/12 28/4/12
f 29/1/13 32/2/13 31/3/13
f 29/1/13 31/3/13 30/4/13
f 25/1/14 29/2/14 30/3/14
f 25/1/14 30/3/14 26/4/14
f 26/1/15 30/2/15 31/3/15
f 26/1/15 31/3/15 27/4/15
f 27/1/16 31/2/16 32/3/16
f 27/1/16 32/3/16 28/4/16
f 29/1/17 25/2/17 28/3/17
f 29/1/17 28/3/17 32/4/17
f 33/1/12 34/2/12 35/3/12
f 33/1/12 35/3/12 36/4/12
f 37/1/13 40/2/13 39/3/13
f 37/1/13 39/3/13 38/4/13
f 33/1/14 37/2/14 38/3/14
f 33/1/14 38/3/14 34/4/14
f 34/1/18 38/2/18 39/3/18
f 34/1/18 39/3/18 35/4/18
f 35/1/16 39/2/16 40/3/16
f 35/1/16 40/3/16 36/4/16
f 37/1/19 33/2/19 36/3/19
f 37/1/19 36/3/19 40/4/19
f 41/1/12 42/2/12 43/3/12
f 41/1/12 43/3/12 44/4/12
f 45/1/13 48/2/13 47/3/13
f 45/1/13 47/3/13 46/4/13
f 41/1/14 45/2/14 46/3/14
f 41/1/14 46/3/14 42/4/14
f 42/1/20 46/2/20 47/3/20
f 42/1/20 47/3/20 43/4/20
f 43/1/16 47/2/16 48/3/16
f 43/1/16 48/3/16 44/4/16
f 45/1/17 41/2/17 44/3/17
f 45/1/17 44/3/17 48/4/17
f 49/1/13 50/2/13 51/3/13
f 49/1/13 51/3/13 52/4/13
f 53/1/12 56/2/12 55/3/12
f 53/1/12 55/3/12 54/4/12
f 49/1/21 53/2/21 54/3/21
f 49/1/21 54/3/21 50/4/21
f 50/1/22 54/2/22 55/3/22
f 50/1/22 55/3/22 51/4/22
f 51/1/23 55/2/23 56/3/23
f 51/1/23 56/3/23 52/4/23
f 53/1/24 49/2/24 52/3/24
f 53/1/24 52/3/24 56/4/24
f 57/1/13 58/2/13 59/3/13
f 57/1/13 59/3/13 60/4/13
f 61/1/12 64/2/12 63/3/12
f 61/1/12 63/3/12 62/4/12
f 57/1/25 61/2/25 62/3/25
f 57/1/25 62/3/25 58/4/25
f 58/1/26 62/2/26 63/3/26
f 58/1/26 63/3/26 59/4/26
f 59/1/27 63/2/27 64/3/27
f 59/1/27 64/3/27 60/4/27
f 61/1/28 57/2/28 60/3/28
f 61/1/28 60/3/28 64/4/28
f 65/1/12 66/2/12 67/3/12
f 65/1/12 67/3/12 68/4/12
f 69/1/13 72/2/13 71/3/13
f 69/1/13 71/3/13 70/4/13
f 65/1/29 69/2/29 70/3/29
f 65/1/29 70/3/29 66/4/29
f 66/1/28 70/2/28 71/3/28
f 66/1/28 71/3/28 67/4/28
f 67/1/16 71/2/16 72/3/16
f 67/1/16 72/3/16 68/4/16
f 69/1/26 65/2/26 68/3/26
f 69/1/26 68/3/26 72/4/26
f 73/1/12 74/2/12 75/3/12
f 73/1/12 75/3/12 76/4/12
f 77/1/13 80/2/13 79/3/13
f 77/1/13 79/3/13 78/4/13
f 73/1/29 77/2/29 78/3/29
f 73/1/29 78/3/29 74/4/29
f 74/1/30 78/2/30 79/3/30
f 74/1/30 79/3/30 75/4/30
f 75/1/16 79/2/16 80/3/16
f 75/1/16 80/3/16 76/4/16
f 77/1/26 73/2/26 76/3/26
f 77/1/26 76/3/26 80/4/26
f 81/1/12 82/2/12 83/3/12
f 81/1/12 83/3/12 84/4/12
f 85/1/13 88/2/13 87/3/13
f 85/1/13 87/3/13 86/4/13
f 81/1/14 85/2/14 86/3/14
f 81/1/14 86/3/14 82/4/14
f 82/1/30 86/2/30 87/3/30
f 82/1/30 87/3/30 83/4/30
f 83/1/5 87/2/5 88/3/5
f 83/1/5 88/3/5 84/4/5
f 85/1/26 81/2/26 84/3/26
f 85/1/26 84/3/26 88/4/26
f 89/1/12 90/2/12 91/3/12
f 89/1/12 91/3/12 92/4/12
f 93/1/13 96/2/13 95/3/13
f 93/1/13 95/3/13 94/4/13
f 89/1/14 93/2/14 94/3/14
f 89/1/14 94/3/14 90/4/14
f 90/1/28 94/2/28 95/3/28
f 90/1/28 95/3/28 91/4/28
f 91/1/16 95/2/16 96/3/16
f 91/1/16 96/3/16 92/4/16
f 93/1/26 89/2/26 92/3/26
f 93/1/26 92/3/26 96/4/26
f 97/1/12 98/2/12 99/3/12
f 97/1/12 99/3/12 100/4/12
f 101/1/13 104/2/13 103/3/13
f 101/1/13 103/3/13 102/4/13
f 97/1/31 101/2/31 102/3/31
f 97/1/31 102/3/31 98/4/31
f 98/1/32 102/2/32 103/3/32
f 98/1/32 103/3/32 99/4/32
f 99/1/33 103/2/33 104/3/33
f 99/1/33 104/3/33 100/4/33
f 101/1/34 97/2/34 100/3/34
f 101/1/34 100/3/34 104/4/34